/* XPM */
static char * clock48_xpm[] = {
"48 48 6 1",
" 	c None",
".	c #000000",
"+	c #FFFFFF",
"@	c #656565",
"#	c #FF0000",
"$	c #7D0000",
"                                                ",
"                                                ",
"      ....................................      ",
"    ........................................    ",
"   ..........................................   ",
"   ..........................................   ",
"  .....................++.....................  ",
"  .....................++.....................  ",
"  .....................++.....................  ",
"  .....................++.....................  ",
"  ............................................  ",
"  .........@+@.....#................+.........  ",
"  .........+++@....#$..............+++........  ",
"  .........@+++....$#.............+++.........  ",
"  ..........@+@.....#$..........@..+..........  ",
"  ..................$#.........@++............  ",
"  ...................#$.......@++@............  ",
"  ...................$#......@++@.............  ",
"  ....................#$....@++@..............  ",
"  ....................$#...@++@...............  ",
"  .....................#$.@++@................  ",
"  ..................@+@..@++@.................  ",
"  ..................++++@++@..................  ",
"  ....++++.........@++++++@............++++...  ",
"  ....++++...........@++++++@..........++++...  ",
"  .....................@++++++@...............  ",
"  ..................@++..@++++++@.............  ",
"  .................@++@..$.@+++++.............  ",
"  ..................+@...#$..@++@.............  ",
"  .......................$#....@..............  ",
"  ........................#...................  ",
"  ............................................  ",
"  ............................................  ",
"  ..........@+@...............................  ",
"  .........@+++...................@+@.........  ",
"  .........+++@...................+++@........  ",
"  .........@+@.....................+++........  ",
"  .................................@+@........  ",
"  ............................................  ",
"  .....................++.....................  ",
"  .....................++.....................  ",
"  .....................++.....................  ",
"   ....................++....................   ",
"   ..........................................   ",
"    ........................................    ",
"      ....................................      ",
"                                                ",
"                                                "};
