/* XPM */
static char * IconBG5_xpm[] = {
"64 64 5 1",
" 	c None",
".	c #FBFBFC",
"+	c #ADACBB",
"@	c #56555E",
"#	c #FFFFFF",
".++++++++++++++++++++++++++++++++++++++++++++++++++++++++++++++@",
".++++++++++++++++++++++++++++++++++++++++++++++++++++++++++++++@",
".++++++++++++++++++++++++++++++++++++++++++++++++++++++++++++++@",
".+++@@@@@@@@@@@@@@@@@@@@@@@@@@@@@@@@@@@@@@@@@@@@@@@@@@@@@@@#+++@",
".+++@#####################################################@#+++@",
".+++@#                                                    @#+++@",
".+++@#                                                    @#+++@",
".+++@#                                                    @#+++@",
".+++@#                                                    @#+++@",
".+++@#                                                    @#+++@",
".+++@#                                                    @#+++@",
".+++@#                                                    @#+++@",
".+++@#                                                    @#+++@",
".+++@#                                                    @#+++@",
".+++@#                                                    @#+++@",
".+++@#                                                    @#+++@",
".+++@#                                                    @#+++@",
".+++@#                                                    @#+++@",
".+++@#                                                    @#+++@",
".+++@#                                                    @#+++@",
".+++@#                                                    @#+++@",
".+++@#                                                    @#+++@",
".+++@#                                                    @#+++@",
".+++@#                                                    @#+++@",
".+++@#                                                    @#+++@",
".+++@#                                                    @#+++@",
".+++@#                                                    @#+++@",
".+++@#                                                    @#+++@",
".+++@#                                                    @#+++@",
".+++@#                                                    @#+++@",
".+++@#                                                    @#+++@",
".+++@#                                                    @#+++@",
".+++@#                                                    @#+++@",
".+++@#                                                    @#+++@",
".+++@#                                                    @#+++@",
".+++@#                                                    @#+++@",
".+++@#                                                    @#+++@",
".+++@#                                                    @#+++@",
".+++@#                                                    @#+++@",
".+++@#                                                    @#+++@",
".+++@#                                                    @#+++@",
".+++@#                                                    @#+++@",
".+++@#                                                    @#+++@",
".+++@#                                                    @#+++@",
".+++@#                                                    @#+++@",
".+++@#                                                    @#+++@",
".+++@#                                                    @#+++@",
".+++@#                                                    @#+++@",
".+++@#                                                    @#+++@",
".+++@#                                                    @#+++@",
".+++@#                                                    @#+++@",
".+++@#                                                    @#+++@",
".+++@#                                                    @#+++@",
".+++@#                                                    @#+++@",
".+++@#                                                    @#+++@",
".+++@#                                                    @#+++@",
".+++@#                                                    @#+++@",
".+++@#                                                    @#+++@",
".+++@#@@@@@@@@@@@@@@@@@@@@@@@@@@@@@@@@@@@@@@@@@@@@@@@@@@@@@#+++@",
".+++@#######################################################+++@",
".++++++++++++++++++++++++++++++++++++++++++++++++++++++++++++++@",
".++++++++++++++++++++++++++++++++++++++++++++++++++++++++++++++@",
".++++++++++++++++++++++++++++++++++++++++++++++++++++++++++++++@",
".@@@@@@@@@@@@@@@@@@@@@@@@@@@@@@@@@@@@@@@@@@@@@@@@@@@@@@@@@@@@@@@"};
