/* XPM */
static char * IconBG_xpm[] = {
"48 48 5 1",
" 	c None",
".	c #FBFBFC",
"+	c #56555E",
"@	c #ADACBB",
"#	c #FFFFFF",
"................................................",
"...............................................+",
"..@@@@@@@@@@@@@@@@@@@@@@@@@@@@@@@@@@@@@@@@@@@@++",
"..@@@@@@@@@@@@@@@@@@@@@@@@@@@@@@@@@@@@@@@@@@@@++",
"..@@@@@@@@@@@@@@@@@@@@@@@@@@@@@@@@@@@@@@@@@@@@++",
"..@@@++++++++++++++++++++++++++++++++++++++@@@++",
"..@@@+                                    #@@@++",
"..@@@+                                    #@@@++",
"..@@@+                                    #@@@++",
"..@@@+                                    #@@@++",
"..@@@+                                    #@@@++",
"..@@@+                                    #@@@++",
"..@@@+                                    #@@@++",
"..@@@+                                    #@@@++",
"..@@@+                                    #@@@++",
"..@@@+                                    #@@@++",
"..@@@+                                    #@@@++",
"..@@@+                                    #@@@++",
"..@@@+                                    #@@@++",
"..@@@+                                    #@@@++",
"..@@@+                                    #@@@++",
"..@@@+                                    #@@@++",
"..@@@+                                    #@@@++",
"..@@@+                                    #@@@++",
"..@@@+                                    #@@@++",
"..@@@+                                    #@@@++",
"..@@@+                                    #@@@++",
"..@@@+                                    #@@@++",
"..@@@+                                    #@@@++",
"..@@@+                                    #@@@++",
"..@@@+                                    #@@@++",
"..@@@+                                    #@@@++",
"..@@@+                                    #@@@++",
"..@@@+                                    #@@@++",
"..@@@+                                    #@@@++",
"..@@@+                                    #@@@++",
"..@@@+                                    #@@@++",
"..@@@+                                    #@@@++",
"..@@@+                                    #@@@++",
"..@@@+                                    #@@@++",
"..@@@+                                    #@@@++",
"..@@@+                                    #@@@++",
"..@@@+#####################################@@@++",
"..@@@@@@@@@@@@@@@@@@@@@@@@@@@@@@@@@@@@@@@@@@@@++",
"..@@@@@@@@@@@@@@@@@@@@@@@@@@@@@@@@@@@@@@@@@@@@++",
"..@@@@@@@@@@@@@@@@@@@@@@@@@@@@@@@@@@@@@@@@@@@@++",
"..++++++++++++++++++++++++++++++++++++++++++++++",
".+++++++++++++++++++++++++++++++++++++++++++++++"};
