/* XPM */
static char * IconBG_Numix_xpm[] = {
"64 64 4 1",
" 	c #242424",
".	c #282828",
"X	c #2d2d2d",
"o	c None",
" .............................................................. ",
" .............................................................. ",
" .............................................................. ",
" ...XXXXXXXXXXXXXXXXXXXXXXXXXXXXXXXXXXXXXXXXXXXXXXXXXXXXXXX ... ",
" ...X                                                     X ... ",
" ...X ooooooooooooooooooooooooooooooooooooooooooooooooooooX ... ",
" ...X ooooooooooooooooooooooooooooooooooooooooooooooooooooX ... ",
" ...X ooooooooooooooooooooooooooooooooooooooooooooooooooooX ... ",
" ...X ooooooooooooooooooooooooooooooooooooooooooooooooooooX ... ",
" ...X ooooooooooooooooooooooooooooooooooooooooooooooooooooX ... ",
" ...X ooooooooooooooooooooooooooooooooooooooooooooooooooooX ... ",
" ...X ooooooooooooooooooooooooooooooooooooooooooooooooooooX ... ",
" ...X ooooooooooooooooooooooooooooooooooooooooooooooooooooX ... ",
" ...X ooooooooooooooooooooooooooooooooooooooooooooooooooooX ... ",
" ...X ooooooooooooooooooooooooooooooooooooooooooooooooooooX ... ",
" ...X ooooooooooooooooooooooooooooooooooooooooooooooooooooX ... ",
" ...X ooooooooooooooooooooooooooooooooooooooooooooooooooooX ... ",
" ...X ooooooooooooooooooooooooooooooooooooooooooooooooooooX ... ",
" ...X ooooooooooooooooooooooooooooooooooooooooooooooooooooX ... ",
" ...X ooooooooooooooooooooooooooooooooooooooooooooooooooooX ... ",
" ...X ooooooooooooooooooooooooooooooooooooooooooooooooooooX ... ",
" ...X ooooooooooooooooooooooooooooooooooooooooooooooooooooX ... ",
" ...X ooooooooooooooooooooooooooooooooooooooooooooooooooooX ... ",
" ...X ooooooooooooooooooooooooooooooooooooooooooooooooooooX ... ",
" ...X ooooooooooooooooooooooooooooooooooooooooooooooooooooX ... ",
" ...X ooooooooooooooooooooooooooooooooooooooooooooooooooooX ... ",
" ...X ooooooooooooooooooooooooooooooooooooooooooooooooooooX ... ",
" ...X ooooooooooooooooooooooooooooooooooooooooooooooooooooX ... ",
" ...X ooooooooooooooooooooooooooooooooooooooooooooooooooooX ... ",
" ...X ooooooooooooooooooooooooooooooooooooooooooooooooooooX ... ",
" ...X ooooooooooooooooooooooooooooooooooooooooooooooooooooX ... ",
" ...X ooooooooooooooooooooooooooooooooooooooooooooooooooooX ... ",
" ...X ooooooooooooooooooooooooooooooooooooooooooooooooooooX ... ",
" ...X ooooooooooooooooooooooooooooooooooooooooooooooooooooX ... ",
" ...X ooooooooooooooooooooooooooooooooooooooooooooooooooooX ... ",
" ...X ooooooooooooooooooooooooooooooooooooooooooooooooooooX ... ",
" ...X ooooooooooooooooooooooooooooooooooooooooooooooooooooX ... ",
" ...X ooooooooooooooooooooooooooooooooooooooooooooooooooooX ... ",
" ...X ooooooooooooooooooooooooooooooooooooooooooooooooooooX ... ",
" ...X ooooooooooooooooooooooooooooooooooooooooooooooooooooX ... ",
" ...X ooooooooooooooooooooooooooooooooooooooooooooooooooooX ... ",
" ...X ooooooooooooooooooooooooooooooooooooooooooooooooooooX ... ",
" ...X ooooooooooooooooooooooooooooooooooooooooooooooooooooX ... ",
" ...X ooooooooooooooooooooooooooooooooooooooooooooooooooooX ... ",
" ...X ooooooooooooooooooooooooooooooooooooooooooooooooooooX ... ",
" ...X ooooooooooooooooooooooooooooooooooooooooooooooooooooX ... ",
" ...X ooooooooooooooooooooooooooooooooooooooooooooooooooooX ... ",
" ...X ooooooooooooooooooooooooooooooooooooooooooooooooooooX ... ",
" ...X ooooooooooooooooooooooooooooooooooooooooooooooooooooX ... ",
" ...X ooooooooooooooooooooooooooooooooooooooooooooooooooooX ... ",
" ...X ooooooooooooooooooooooooooooooooooooooooooooooooooooX ... ",
" ...X ooooooooooooooooooooooooooooooooooooooooooooooooooooX ... ",
" ...X ooooooooooooooooooooooooooooooooooooooooooooooooooooX ... ",
" ...X ooooooooooooooooooooooooooooooooooooooooooooooooooooX ... ",
" ...X ooooooooooooooooooooooooooooooooooooooooooooooooooooX ... ",
" ...X ooooooooooooooooooooooooooooooooooooooooooooooooooooX ... ",
" ...X ooooooooooooooooooooooooooooooooooooooooooooooooooooX ... ",
" ...X ooooooooooooooooooooooooooooooooooooooooooooooooooooX ... ",
" ...X XXXXXXXXXXXXXXXXXXXXXXXXXXXXXXXXXXXXXXXXXXXXXXXXXXXXX ... ",
" ...X                                                       ... ",
" .............................................................. ",
" .............................................................. ",
" .............................................................. ",
"                                                                "};
