/* XPM */
static char * a_iconify_xpm[] = {
"16 16 2 1",
" 	c None",
".	c #eeeeee",
"                ",
"                ",
"       ..       ",
"       ..       ",
"       ..       ",
"       ..       ",
"       ..       ",
"       .......  ",
"       .......  ",
"                ",
"  ....          ",
"  ....          ",
"  ....          ",
"  ....          ",
"                ",
"                "};
