/* XPM */
static char * a_maximize_xpm[] = {
"16 16 3 1",
" 	c None",
".	c #eaeaea",
"+	c #eeeeee",
"                ",
"                ",
"  ............  ",
"  .++++++++++.  ",
"  .          .  ",
"  .          .  ",
"  .          .  ",
"  .          .  ",
"  .          .  ",
"  .          .  ",
"  .          .  ",
"  .          .  ",
"  .          .  ",
"  ............  ",
"                ",
"                "};
