/* XPM */
static char * a_menu_xpm[] = {
"16 16 3 1",
" 	c None",
".	c #101010",
"X	c #202020",
"                ",
"                ",
"   ..........   ",
"  .          .  ",
"  . XXXXXXXX .  ",
"  . XXXXXXXX .  ",
"  .          .  ",
"  . XXXXXXXX .  ",
"  . XXXXXXXX .  ",
"  .          .  ",
"  . XXXXXXXX .  ",
"  . XXXXXXXX .  ",
"  .          .  ",
"   ..........   ",
"                ",
"                "};
