/* XPM */
static char * a_shade_xpm[] = {
"16 16 2 1",
" 	c None",
".	c #101010",
"                ",
"                ",
"  ............  ",
"  ............  ",
"                ",
"                ",
"       ..       ",
"       ..       ",
"      ....      ",
"      ....      ",
"     ......     ",
"     ......     ",
"    ........    ",
"   ..........   ",
"                ",
"                "};
