/* XPM */
static char * a_unshade2_xpm[] = {
"16 16 2 1",
" 	c None",
".	c #101010",
"                ",
"                ",
"  ..            ",
"  ..  .         ",
"  ..  ..        ",
"  ..  ....      ",
"  ..  ......    ",
"  ..  ........  ",
"  ..  ........  ",
"  ..  ......    ",
"  ..  ....      ",
"  ..  ..        ",
"  ..  .         ",
"  ..            ",
"                ",
"                "};
