/* XPM */
static char * i_iconify_xpm[] = {
"16 16 2 1",
" 	c None",
".	c #888888",
"                ",
"                ",
"                ",
"      ..        ",
"      ..        ",
"      ..        ",
"      ..        ",
"      ..        ",
"      .......   ",
"      .......   ",
"                ",
" ....           ",
" ....           ",
" ....           ",
" ....           ",
"                "};
