/* XPM */
static char * i_unshade3_xpm[] = {
"16 16 2 1",
" 	c None",
".	c #888888",
"                ",
"                ",
"            ..  ",
"         .  ..  ",
"        ..  ..  ",
"      ....  ..  ",
"    ......  ..  ",
"  ........  ..  ",
"  ........  ..  ",
"    ......  ..  ",
"      ....  ..  ",
"        ..  ..  ",
"         .  ..  ",
"            ..  ",
"                ",
"                "};
