/* XPM */
static char *alsamixer[] = {
/* columns rows colors chars-per-pixel */
"16 16 90 1 ",
"  c #201A22D31FBC",
". c #262128BD2560",
"X c #28D22C312859",
"o c #2AE72DFE2A9C",
"O c #2B892F892B36",
"+ c #2BE32EFA2B22",
"@ c #2DD431A92D3E",
"# c #346438FF33D2",
"$ c #364D3A6335E0",
"% c #37EB3C203777",
"& c #38223CD1379C",
"* c #39573E5C38F0",
"= c #3AD13F7B3A77",
"- c #3AF440223A44",
"; c #3B5140383AF8",
": c #3D4B42C83CA5",
"> c #3F6545113EBC",
", c #46424B5345B5",
"< c #45B94C35452D",
"1 c #47164C394684",
"2 c #46ED4D23462C",
"3 c #48F64F43484A",
"4 c #49AA50114915",
"5 c #49FE50A8493D",
"6 c #4A1250E24986",
"7 c #4C0852CA4B30",
"8 c #4DE654604D69",
"9 c #4F0856064E4B",
"0 c #502957244F93",
"q c #51175781507B",
"w c #5170584B5064",
"e c #528C58B551FD",
"r c #54715AC653DD",
"t c #59A6603D58FA",
"y c #5B3162C95A49",
"u c #5B9A625F5AEA",
"i c #5E67665A5D80",
"p c #62C56AE161AD",
"a c #65806E496463",
"s c #683E71436744",
"d c #69A972A8688C",
"f c #6A7B7337698E",
"g c #6A9073F76989",
"h c #6D0F765E6BDE",
"j c #6D7D765C6C86",
"k c #6D8D77096C48",
"l c #709C7A746F2E",
"z c #71D17BC570B1",
"x c #73307D01720C",
"c c #767F80EA7507",
"v c #76AE812E7551",
"b c #78CE835077A9",
"n c #79B183B678BE",
"m c #7A2784D978B9",
"M c #7A9884B379A4",
"N c #7AEE857279BA",
"B c #7B8B86017A5B",
"V c #7CF787DD7BDC",
"C c #7D1E87EC7BC9",
"Z c #7EE089B07D6D",
"A c #8945954787F4",
"S c #8B73972D8A4F",
"D c #8C8A98BB8B35",
"F c #8CEE99408B86",
"G c #90BC9DA58F05",
"H c #91559E2E8FE4",
"J c #93A1A0A29228",
"K c #989DA5F49725",
"L c #9A9CA83A990F",
"P c #A20AAEDDA08F",
"I c #A4D4B363A33B",
"U c #A542B3C2A3B3",
"Y c #A5C3B441A459",
"T c #A885B76EA6C7",
"R c #B0D5C090AEF8",
"E c #B118C0BAAF6E",
"W c #B1EAC1A0B03E",
"Q c #B347C311B190",
"! c #B8F2C96BB713",
"~ c #BB85CBFEB9A4",
"^ c #BBEACCDDBA04",
"/ c #BDA2CECABBB7",
"( c #BEA0CFD5BCB0",
") c #C6A3D87AC4B9",
"_ c #C764D954C55B",
"` c #C79CD987C5B0",
"' c #C907DB0EC70C",
"] c #CB31DD9AC926",
"[ c #CBE6DE5DC9DA",
"{ c None",
/* pixels */
"{{{{{{{{{{{{{{{{",
"{{{{{{{{{{{{{{{{",
"{{{{{{{{{{{{{{{{",
"{{{{{{{{{{{{{{{{",
"{{{{$,==:3ye{{{{",
"{{+yfFbQTmUAFn{{",
"o9U!pJ9^ma/fL_~P",
"qE[U&z7^HCR3h_'S",
"S'[m@44//fb=1/Ee",
"P^_c 1$cGqio;K9o",
"{{mxsmjlZjV9o.{{",
"{{{{ry4>;;1&{{{{",
"{{{{{{{{{{{{{{{{",
"{{{{{{{{{{{{{{{{",
"{{{{{{{{{{{{{{{{",
"{{{{{{{{{{{{{{{{"
};
