/* XPM */
static char *maximize3[] = {
/* columns rows colors chars-per-pixel */
"14 14 3 1 ",
"  c #000080800000",
". c magenta",
"X c None",
/* pixels */
"XXXXXX   XXXXX",
"XXXXX     XXXX",
"XXXX       XXX",
"XXX  X   X  XX",
"XXX..X   X..XX",
"XX..XX   XX..X",
"X.....   .....",
"X.....   .....",
"XX..XX   XX..X",
"XXX..X   X..XX",
"XXX  X   X  XX",
"XXXX       XXX",
"XXXXX     XXXX",
"XXXXXX   XXXXX"
};
