/* XPM */
static char * shade2_xpm[] = {
"16 16 4 1",
" 	c None",
".	c #000000",
"+	c #B82D2D",
"@	c #FFFFFF",
"                ",
"............... ",
".+++++++++++++. ",
".+++++++++++++. ",
".+++++++++++++. ",
".@@@@@@.@@@@@@. ",
".@@@@@...@@@@@. ",
".@@@@.....@@@@. ",
".@@@@@@.@@@@@@. ",
".@@@@@@.@@@@@@. ",
".@@@@.....@@@@. ",
".@@@@@...@@@@@. ",
".@@@@@@.@@@@@@. ",
"............... ",
"                ",
"                "};
